<?xml version="1.0" standalone="no"?>
<!DOCTYPE svg PUBLIC "-//W3C//DTD SVG 20010904//EN"
 "http://www.w3.org/TR/2001/REC-SVG-20010904/DTD/svg10.dtd">
<svg version="1.0" xmlns="http://www.w3.org/2000/svg"
 width="640.000000pt" height="640.000000pt" viewBox="0 0 640.000000 640.000000"
 preserveAspectRatio="xMidYMid meet">
<metadata>
Created by potrace 1.14, written by Peter Selinger 2001-2017
</metadata>
<g transform="translate(0.000000,640.000000) scale(0.100000,-0.100000)"
fill="#000000" stroke="none">
<path d="M2925 6389 c-980 -91 -1853 -610 -2389 -1419 -280 -422 -440 -852
-512 -1375 -25 -183 -25 -607 0 -790 72 -522 232 -952 512 -1375 465 -703
1198 -1197 2025 -1364 70 -14 129 -26 133 -26 3 0 6 502 6 1115 l0 1115 -405
0 -405 0 0 465 0 465 405 0 405 0 0 420 c0 456 8 562 56 728 121 416 407 680
839 774 183 40 550 35 890 -13 77 -10 141 -19 142 -19 2 0 3 -177 3 -394 l0
-394 -272 -4 c-224 -4 -283 -8 -328 -23 -134 -43 -216 -108 -271 -216 -50
-100 -58 -174 -59 -536 l0 -323 446 0 446 0 -6 -27 c-8 -37 -136 -881 -136
-893 0 -6 -139 -10 -375 -10 l-375 0 0 -1115 c0 -613 4 -1115 8 -1115 5 0 67
12 138 26 1154 234 2105 1114 2428 2246 90 317 120 537 120 888 0 284 -12 409
-60 645 -172 829 -662 1554 -1364 2019 -420 279 -857 442 -1370 511 -139 19
-536 27 -675 14z"/>
</g>
</svg>
